<svg xmlns="http://www.w3.org/2000/svg" viewBox="0 0 480 220" preserveAspectRatio="xMidYMid slice" role="img" aria-label="Guia de alimentacion del Rottweiler"><title>Guia de alimentacion del Rottweiler</title><defs><linearGradient id="bg" x1="0" y1="0" x2="1" y2="1"><stop offset="0" stop-color="#1E1008"/><stop offset="1" stop-color="#0D0B09"/></linearGradient><radialGradient id="gl" cx="0.5" cy="0.42" r="0.62"><stop offset="0" stop-color="#C8722A" stop-opacity="0.22"/><stop offset="1" stop-color="#C8722A" stop-opacity="0"/></radialGradient></defs><rect width="480" height="220" fill="url(#bg)"/><rect width="480" height="220" fill="url(#gl)"/><g transform="translate(432 196) scale(1.15)" fill="#C8722A" opacity="0.06"><ellipse cx="0" cy="10" rx="20" ry="16"/><circle cx="-18" cy="-12" r="7"/><circle cx="-6" cy="-19" r="7"/><circle cx="6" cy="-19" r="7"/><circle cx="18" cy="-12" r="7"/></g><g transform="translate(240 66) rotate(-18)" fill="#F2EDE6"><rect x="-40" y="-9" width="80" height="18" rx="9"/><circle cx="-40" cy="-11" r="11"/><circle cx="-40" cy="11" r="11"/><circle cx="40" cy="-11" r="11"/><circle cx="40" cy="11" r="11"/></g><g fill="none" stroke="#C8722A" stroke-width="8" stroke-linejoin="round" stroke-linecap="round"><ellipse cx="240" cy="126" rx="86" ry="20"/><path d="M166 130 q74 52 148 0"/><path d="M150 128 q90 62 180 0" opacity="0.35"/></g><ellipse cx="240" cy="126" rx="70" ry="13" fill="#C8722A" opacity="0.18"/></svg>