<svg xmlns="http://www.w3.org/2000/svg" viewBox="0 0 480 220" preserveAspectRatio="xMidYMid slice" role="img" aria-label="Bozal para Rottweiler"><title>Bozal para Rottweiler</title><defs><linearGradient id="bg" x1="0" y1="0" x2="1" y2="1"><stop offset="0" stop-color="#1E1008"/><stop offset="1" stop-color="#0D0B09"/></linearGradient><radialGradient id="gl" cx="0.5" cy="0.42" r="0.62"><stop offset="0" stop-color="#C8722A" stop-opacity="0.22"/><stop offset="1" stop-color="#C8722A" stop-opacity="0"/></radialGradient></defs><rect width="480" height="220" fill="url(#bg)"/><rect width="480" height="220" fill="url(#gl)"/><g transform="translate(432 196) scale(1.15)" fill="#C8722A" opacity="0.06"><ellipse cx="0" cy="10" rx="20" ry="16"/><circle cx="-18" cy="-12" r="7"/><circle cx="-6" cy="-19" r="7"/><circle cx="6" cy="-19" r="7"/><circle cx="18" cy="-12" r="7"/></g><g fill="none" stroke="#C8722A" stroke-width="8" stroke-linecap="round" stroke-linejoin="round"><path d="M188 92 Q188 74 210 74 L300 84 Q330 90 330 118 Q330 150 296 156 L214 156 Q188 150 188 128 Z"/><path d="M210 74 L206 156 M244 78 L242 156 M278 82 L276 156"/><path d="M188 108 H328 M192 134 H320"/></g><ellipse cx="316" cy="120" rx="10" ry="12" fill="#F2EDE6"/></svg>