<svg xmlns="http://www.w3.org/2000/svg" viewBox="0 0 480 220" preserveAspectRatio="xMidYMid slice" role="img" aria-label="Guia del Rottweiler cachorro"><title>Guia del Rottweiler cachorro</title><defs><linearGradient id="bg" x1="0" y1="0" x2="1" y2="1"><stop offset="0" stop-color="#1E1008"/><stop offset="1" stop-color="#0D0B09"/></linearGradient><radialGradient id="gl" cx="0.5" cy="0.42" r="0.62"><stop offset="0" stop-color="#C8722A" stop-opacity="0.22"/><stop offset="1" stop-color="#C8722A" stop-opacity="0"/></radialGradient></defs><rect width="480" height="220" fill="url(#bg)"/><rect width="480" height="220" fill="url(#gl)"/><g transform="translate(432 196) scale(1.15)" fill="#C8722A" opacity="0.06"><ellipse cx="0" cy="10" rx="20" ry="16"/><circle cx="-18" cy="-12" r="7"/><circle cx="-6" cy="-19" r="7"/><circle cx="6" cy="-19" r="7"/><circle cx="18" cy="-12" r="7"/></g><g transform="translate(240 116)"><path d="M-46 -30 Q-64 -8 -50 26 L-30 6 Z" fill="#C8722A"/><path d="M46 -30 Q64 -8 50 26 L30 6 Z" fill="#C8722A"/><circle cx="0" cy="0" r="46" fill="#F2EDE6"/><circle cx="-17" cy="-6" r="6" fill="#C8722A"/><circle cx="17" cy="-6" r="6" fill="#C8722A"/><ellipse cx="0" cy="16" rx="9" ry="7" fill="#C8722A"/><path d="M0 23 V32 M0 32 q-10 0 -12 -6 M0 32 q10 0 12 -6" stroke="#C8722A" stroke-width="3" fill="none" stroke-linecap="round"/></g></svg>