<svg xmlns="http://www.w3.org/2000/svg" viewBox="0 0 480 220" preserveAspectRatio="xMidYMid slice" role="img" aria-label="Displasia de cadera en Rottweiler"><title>Displasia de cadera en Rottweiler</title><defs><linearGradient id="bg" x1="0" y1="0" x2="1" y2="1"><stop offset="0" stop-color="#1E1008"/><stop offset="1" stop-color="#0D0B09"/></linearGradient><radialGradient id="gl" cx="0.5" cy="0.42" r="0.62"><stop offset="0" stop-color="#C8722A" stop-opacity="0.22"/><stop offset="1" stop-color="#C8722A" stop-opacity="0"/></radialGradient></defs><rect width="480" height="220" fill="url(#bg)"/><rect width="480" height="220" fill="url(#gl)"/><g transform="translate(432 196) scale(1.15)" fill="#C8722A" opacity="0.06"><ellipse cx="0" cy="10" rx="20" ry="16"/><circle cx="-18" cy="-12" r="7"/><circle cx="-6" cy="-19" r="7"/><circle cx="6" cy="-19" r="7"/><circle cx="18" cy="-12" r="7"/></g><g fill="none" stroke="#F2EDE6" stroke-width="14" stroke-linecap="round"><path d="M300 150 L232 104"/></g><circle cx="224" cy="98" r="26" fill="#F2EDE6"/><path d="M196 128 A34 34 0 0 1 196 66" fill="none" stroke="#C8722A" stroke-width="12" stroke-linecap="round"/><circle cx="224" cy="98" r="10" fill="#C8722A"/><g transform="translate(300 76)" fill="#C0392B"><circle cx="0" cy="0" r="15"/><rect x="-3" y="-9" width="6" height="10" rx="3" fill="#F2EDE6"/><circle cx="0" cy="6" r="3" fill="#F2EDE6"/></g></svg>