<svg xmlns="http://www.w3.org/2000/svg" viewBox="0 0 480 220" preserveAspectRatio="xMidYMid slice" role="img" aria-label="Como educar un Rottweiler"><title>Como educar un Rottweiler</title><defs><linearGradient id="bg" x1="0" y1="0" x2="1" y2="1"><stop offset="0" stop-color="#1E1008"/><stop offset="1" stop-color="#0D0B09"/></linearGradient><radialGradient id="gl" cx="0.5" cy="0.42" r="0.62"><stop offset="0" stop-color="#C8722A" stop-opacity="0.22"/><stop offset="1" stop-color="#C8722A" stop-opacity="0"/></radialGradient></defs><rect width="480" height="220" fill="url(#bg)"/><rect width="480" height="220" fill="url(#gl)"/><g transform="translate(432 196) scale(1.15)" fill="#C8722A" opacity="0.06"><ellipse cx="0" cy="10" rx="20" ry="16"/><circle cx="-18" cy="-12" r="7"/><circle cx="-6" cy="-19" r="7"/><circle cx="6" cy="-19" r="7"/><circle cx="18" cy="-12" r="7"/></g><g transform="translate(240 92)"><polygon points="0,-34 82,-6 0,22 -82,-6" fill="#C8722A"/><path d="M-46 6 V44 q46 30 92 0 V6" fill="none" stroke="#F2EDE6" stroke-width="7" stroke-linejoin="round"/><line x1="82" y1="-6" x2="82" y2="40" stroke="#F2EDE6" stroke-width="5" stroke-linecap="round"/><circle cx="82" cy="46" r="7" fill="#F2EDE6"/></g><g transform="translate(240 176) scale(0.78)" fill="#F2EDE6" opacity="0.9"><ellipse cx="0" cy="10" rx="20" ry="16"/><circle cx="-18" cy="-12" r="7"/><circle cx="-6" cy="-19" r="7"/><circle cx="6" cy="-19" r="7"/><circle cx="18" cy="-12" r="7"/></g></svg>