<svg xmlns="http://www.w3.org/2000/svg" viewBox="0 0 480 220" preserveAspectRatio="xMidYMid slice" role="img" aria-label="Enfermedades comunes del Rottweiler"><title>Enfermedades comunes del Rottweiler</title><defs><linearGradient id="bg" x1="0" y1="0" x2="1" y2="1"><stop offset="0" stop-color="#1E1008"/><stop offset="1" stop-color="#0D0B09"/></linearGradient><radialGradient id="gl" cx="0.5" cy="0.42" r="0.62"><stop offset="0" stop-color="#C8722A" stop-opacity="0.22"/><stop offset="1" stop-color="#C8722A" stop-opacity="0"/></radialGradient></defs><rect width="480" height="220" fill="url(#bg)"/><rect width="480" height="220" fill="url(#gl)"/><g transform="translate(432 196) scale(1.15)" fill="#C8722A" opacity="0.06"><ellipse cx="0" cy="10" rx="20" ry="16"/><circle cx="-18" cy="-12" r="7"/><circle cx="-6" cy="-19" r="7"/><circle cx="6" cy="-19" r="7"/><circle cx="18" cy="-12" r="7"/></g><path d="M240 54 L300 74 V120 C300 152 274 168 240 180 C206 168 180 152 180 120 V74 Z" fill="none" stroke="#C8722A" stroke-width="8" stroke-linejoin="round"/><g transform="translate(240 116)" fill="#F2EDE6"><rect x="-9" y="-24" width="18" height="48" rx="5"/><rect x="-24" y="-9" width="48" height="18" rx="5"/></g></svg>