<svg xmlns="http://www.w3.org/2000/svg" viewBox="0 0 480 220" preserveAspectRatio="xMidYMid slice" role="img" aria-label="Rottweiler y gatos conviviendo"><title>Rottweiler y gatos conviviendo</title><defs><linearGradient id="bg" x1="0" y1="0" x2="1" y2="1"><stop offset="0" stop-color="#1E1008"/><stop offset="1" stop-color="#0D0B09"/></linearGradient><radialGradient id="gl" cx="0.5" cy="0.42" r="0.62"><stop offset="0" stop-color="#C8722A" stop-opacity="0.22"/><stop offset="1" stop-color="#C8722A" stop-opacity="0"/></radialGradient></defs><rect width="480" height="220" fill="url(#bg)"/><rect width="480" height="220" fill="url(#gl)"/><g transform="translate(432 196) scale(1.15)" fill="#C8722A" opacity="0.06"><ellipse cx="0" cy="10" rx="20" ry="16"/><circle cx="-18" cy="-12" r="7"/><circle cx="-6" cy="-19" r="7"/><circle cx="6" cy="-19" r="7"/><circle cx="18" cy="-12" r="7"/></g><g transform="translate(214 116)"><polygon points="-30,-20 -14,-40 -6,-16" fill="#F2EDE6"/><polygon points="30,-20 14,-40 6,-16" fill="#F2EDE6"/><circle cx="0" cy="4" r="32" fill="#F2EDE6"/><circle cx="-12" cy="-2" r="4" fill="#C8722A"/><circle cx="12" cy="-2" r="4" fill="#C8722A"/><path d="M0 8 l-6 6 M0 8 l6 6" stroke="#C8722A" stroke-width="3" fill="none" stroke-linecap="round"/><path d="M-16 12 h-20 M-16 18 h-16 M16 12 h20 M16 18 h16" stroke="#F2EDE6" stroke-width="2" opacity="0.6"/></g><g transform="translate(312 132) scale(0.85)" fill="#C8722A" opacity="1.0"><ellipse cx="0" cy="10" rx="20" ry="16"/><circle cx="-18" cy="-12" r="7"/><circle cx="-6" cy="-19" r="7"/><circle cx="6" cy="-19" r="7"/><circle cx="18" cy="-12" r="7"/></g></svg>