<svg xmlns="http://www.w3.org/2000/svg" viewBox="0 0 480 220" preserveAspectRatio="xMidYMid slice" role="img" aria-label="Historia y origen del Rottweiler"><title>Historia y origen del Rottweiler</title><defs><linearGradient id="bg" x1="0" y1="0" x2="1" y2="1"><stop offset="0" stop-color="#1E1008"/><stop offset="1" stop-color="#0D0B09"/></linearGradient><radialGradient id="gl" cx="0.5" cy="0.42" r="0.62"><stop offset="0" stop-color="#C8722A" stop-opacity="0.22"/><stop offset="1" stop-color="#C8722A" stop-opacity="0"/></radialGradient></defs><rect width="480" height="220" fill="url(#bg)"/><rect width="480" height="220" fill="url(#gl)"/><g transform="translate(432 196) scale(1.15)" fill="#C8722A" opacity="0.06"><ellipse cx="0" cy="10" rx="20" ry="16"/><circle cx="-18" cy="-12" r="7"/><circle cx="-6" cy="-19" r="7"/><circle cx="6" cy="-19" r="7"/><circle cx="18" cy="-12" r="7"/></g><g stroke="#C8722A" stroke-width="0" fill="#F2EDE6"><rect x="196" y="60" width="88" height="16" rx="3"/><rect x="204" y="76" width="72" height="12"/><rect x="192" y="172" width="96" height="16" rx="3"/><rect x="200" y="160" width="80" height="12"/></g><g stroke="#C8722A" stroke-width="6" opacity="0.9"><line x1="216" y1="90" x2="216" y2="158"/><line x1="234" y1="90" x2="234" y2="158"/><line x1="252" y1="90" x2="252" y2="158"/><line x1="270" y1="90" x2="270" y2="158"/></g></svg>