<svg xmlns="http://www.w3.org/2000/svg" viewBox="0 0 480 220" preserveAspectRatio="xMidYMid slice" role="img" aria-label="Ley de Bienestar Animal 2023"><title>Ley de Bienestar Animal 2023</title><defs><linearGradient id="bg" x1="0" y1="0" x2="1" y2="1"><stop offset="0" stop-color="#1E1008"/><stop offset="1" stop-color="#0D0B09"/></linearGradient><radialGradient id="gl" cx="0.5" cy="0.42" r="0.62"><stop offset="0" stop-color="#C8722A" stop-opacity="0.22"/><stop offset="1" stop-color="#C8722A" stop-opacity="0"/></radialGradient></defs><rect width="480" height="220" fill="url(#bg)"/><rect width="480" height="220" fill="url(#gl)"/><g transform="translate(432 196) scale(1.15)" fill="#C8722A" opacity="0.06"><ellipse cx="0" cy="10" rx="20" ry="16"/><circle cx="-18" cy="-12" r="7"/><circle cx="-6" cy="-19" r="7"/><circle cx="6" cy="-19" r="7"/><circle cx="18" cy="-12" r="7"/></g><g fill="none" stroke="#C8722A" stroke-width="7" stroke-linecap="round" stroke-linejoin="round"><line x1="240" y1="58" x2="240" y2="176"/><line x1="176" y1="80" x2="304" y2="80"/><line x1="204" y1="184" x2="276" y2="184"/><path d="M176 80 L156 122 A24 24 0 0 0 196 122 Z"/><path d="M304 80 L284 122 A24 24 0 0 0 324 122 Z"/></g><circle cx="240" cy="58" r="8" fill="#F2EDE6"/></svg>