<svg xmlns="http://www.w3.org/2000/svg" viewBox="0 0 480 220" preserveAspectRatio="xMidYMid slice" role="img" aria-label="Microchip obligatorio para Rottweiler"><title>Microchip obligatorio para Rottweiler</title><defs><linearGradient id="bg" x1="0" y1="0" x2="1" y2="1"><stop offset="0" stop-color="#1E1008"/><stop offset="1" stop-color="#0D0B09"/></linearGradient><radialGradient id="gl" cx="0.5" cy="0.42" r="0.62"><stop offset="0" stop-color="#C8722A" stop-opacity="0.22"/><stop offset="1" stop-color="#C8722A" stop-opacity="0"/></radialGradient></defs><rect width="480" height="220" fill="url(#bg)"/><rect width="480" height="220" fill="url(#gl)"/><g transform="translate(432 196) scale(1.15)" fill="#C8722A" opacity="0.06"><ellipse cx="0" cy="10" rx="20" ry="16"/><circle cx="-18" cy="-12" r="7"/><circle cx="-6" cy="-19" r="7"/><circle cx="6" cy="-19" r="7"/><circle cx="18" cy="-12" r="7"/></g><rect x="200" y="84" width="80" height="72" rx="8" fill="none" stroke="#F2EDE6" stroke-width="7"/><rect x="222" y="104" width="36" height="32" rx="4" fill="#C8722A"/><g stroke="#F2EDE6" stroke-width="6" stroke-linecap="round"><path d="M212 84 V68 M240 84 V68 M268 84 V68"/><path d="M212 156 V172 M240 156 V172 M268 156 V172"/><path d="M200 100 H184 M200 128 H184"/><path d="M280 100 H296 M280 128 H296"/></g></svg>