<svg xmlns="http://www.w3.org/2000/svg" viewBox="0 0 480 220" preserveAspectRatio="xMidYMid slice" role="img" aria-label="Rottweiler con ninos"><title>Rottweiler con ninos</title><defs><linearGradient id="bg" x1="0" y1="0" x2="1" y2="1"><stop offset="0" stop-color="#1E1008"/><stop offset="1" stop-color="#0D0B09"/></linearGradient><radialGradient id="gl" cx="0.5" cy="0.42" r="0.62"><stop offset="0" stop-color="#C8722A" stop-opacity="0.22"/><stop offset="1" stop-color="#C8722A" stop-opacity="0"/></radialGradient></defs><rect width="480" height="220" fill="url(#bg)"/><rect width="480" height="220" fill="url(#gl)"/><g transform="translate(432 196) scale(1.15)" fill="#C8722A" opacity="0.06"><ellipse cx="0" cy="10" rx="20" ry="16"/><circle cx="-18" cy="-12" r="7"/><circle cx="-6" cy="-19" r="7"/><circle cx="6" cy="-19" r="7"/><circle cx="18" cy="-12" r="7"/></g><g transform="translate(228 104) scale(3.0)" opacity="1.0"><path d="M0 18 C-26 -2 -20 -30 0 -14 C20 -30 26 -2 0 18 Z" fill="none" stroke="#C8722A" stroke-width="8" stroke-linejoin="round"/></g><g transform="translate(228 104) scale(0.62)" fill="#F2EDE6" opacity="1.0"><ellipse cx="0" cy="10" rx="20" ry="16"/><circle cx="-18" cy="-12" r="7"/><circle cx="-6" cy="-19" r="7"/><circle cx="6" cy="-19" r="7"/><circle cx="18" cy="-12" r="7"/></g><g transform="translate(318 70) scale(1.3)" opacity="1.0"><path d="M0 18 C-26 -2 -20 -30 0 -14 C20 -30 26 -2 0 18 Z" fill="#C8722A" stroke="#C8722A" stroke-width="6" stroke-linejoin="round"/></g></svg>