<svg xmlns="http://www.w3.org/2000/svg" viewBox="0 0 480 220" preserveAspectRatio="xMidYMid slice" role="img" aria-label="Lista de razas PPP"><title>Lista de razas PPP</title><defs><linearGradient id="bg" x1="0" y1="0" x2="1" y2="1"><stop offset="0" stop-color="#1E1008"/><stop offset="1" stop-color="#0D0B09"/></linearGradient><radialGradient id="gl" cx="0.5" cy="0.42" r="0.62"><stop offset="0" stop-color="#C8722A" stop-opacity="0.22"/><stop offset="1" stop-color="#C8722A" stop-opacity="0"/></radialGradient></defs><rect width="480" height="220" fill="url(#bg)"/><rect width="480" height="220" fill="url(#gl)"/><rect x="176" y="52" width="128" height="120" rx="8" fill="none" stroke="#F2EDE6" stroke-width="7"/><rect x="212" y="44" width="56" height="18" rx="5" fill="#C8722A"/><g fill="#C8722A"><g transform="translate(202 88) scale(0.42)"><ellipse cx="0" cy="10" rx="20" ry="16"/><circle cx="-18" cy="-12" r="7"/><circle cx="-6" cy="-19" r="7"/><circle cx="6" cy="-19" r="7"/><circle cx="18" cy="-12" r="7"/></g><g transform="translate(202 122) scale(0.42)"><ellipse cx="0" cy="10" rx="20" ry="16"/><circle cx="-18" cy="-12" r="7"/><circle cx="-6" cy="-19" r="7"/><circle cx="6" cy="-19" r="7"/><circle cx="18" cy="-12" r="7"/></g><g transform="translate(202 156) scale(0.42)"><ellipse cx="0" cy="10" rx="20" ry="16"/><circle cx="-18" cy="-12" r="7"/><circle cx="-6" cy="-19" r="7"/><circle cx="6" cy="-19" r="7"/><circle cx="18" cy="-12" r="7"/></g></g><g stroke="#F2EDE6" stroke-width="5" stroke-linecap="round" opacity="0.75"><line x1="228" y1="88" x2="286" y2="88"/><line x1="228" y1="122" x2="286" y2="122"/><line x1="228" y1="156" x2="286" y2="156"/></g></svg>
