<svg xmlns="http://www.w3.org/2000/svg" viewBox="0 0 480 220" preserveAspectRatio="xMidYMid slice" role="img" aria-label="Tren de RENFE y la nueva normativa de perros de hasta 40 kg"><title>RENFE y perros de hasta 40 kg</title><defs><linearGradient id="bg" x1="0" y1="0" x2="1" y2="1"><stop offset="0" stop-color="#1E1008"/><stop offset="1" stop-color="#0D0B09"/></linearGradient><radialGradient id="gl" cx="0.5" cy="0.42" r="0.62"><stop offset="0" stop-color="#C8722A" stop-opacity="0.22"/><stop offset="1" stop-color="#C8722A" stop-opacity="0"/></radialGradient></defs><rect width="480" height="220" fill="url(#bg)"/><rect width="480" height="220" fill="url(#gl)"/><!-- rails --><line x1="96" y1="172" x2="392" y2="172" stroke="#C8722A" stroke-width="4" stroke-linecap="round" opacity="0.55"/><g stroke="#C8722A" stroke-width="3" opacity="0.3"><line x1="150" y1="172" x2="140" y2="182"/><line x1="220" y1="172" x2="210" y2="182"/><line x1="290" y1="172" x2="280" y2="182"/></g><!-- motion lines --><g stroke="#E0965A" stroke-width="5" stroke-linecap="round" opacity="0.7"><line x1="86" y1="104" x2="120" y2="104"/><line x1="74" y1="128" x2="116" y2="128"/><line x1="88" y1="152" x2="120" y2="152"/></g><!-- train body (high-speed nose to the right) --><path d="M150 158 V112 Q150 100 162 100 H288 Q326 100 348 132 L360 152 Q363 158 356 158 Z" fill="none" stroke="#F2EDE6" stroke-width="8" stroke-linejoin="round"/><!-- cabin window (nose) --><path d="M300 116 Q322 116 334 134 L300 134 Z" fill="#C8722A"/><!-- side windows --><rect x="176" y="120" width="30" height="24" rx="4" fill="#C8722A"/><rect x="220" y="120" width="30" height="24" rx="4" fill="#C8722A"/><!-- paw in the last window (Maya looking out) --><g transform="translate(279 132) scale(0.5)" fill="#F2EDE6"><ellipse cx="0" cy="10" rx="20" ry="16"/><circle cx="-18" cy="-12" r="7"/><circle cx="-6" cy="-19" r="7"/><circle cx="6" cy="-19" r="7"/><circle cx="18" cy="-12" r="7"/></g><rect x="264" y="120" width="30" height="24" rx="4" fill="none" stroke="#C8722A" stroke-width="4"/><!-- wheels --><g fill="#F2EDE6"><circle cx="196" cy="158" r="13"/><circle cx="300" cy="158" r="13"/></g><g fill="#C8722A"><circle cx="196" cy="158" r="5"/><circle cx="300" cy="158" r="5"/></g></svg>
