<svg xmlns="http://www.w3.org/2000/svg" viewBox="0 0 480 220" preserveAspectRatio="xMidYMid slice" role="img" aria-label="Requisitos para tener un Rottweiler en Espana"><title>Requisitos para tener un Rottweiler en Espana</title><defs><linearGradient id="bg" x1="0" y1="0" x2="1" y2="1"><stop offset="0" stop-color="#1E1008"/><stop offset="1" stop-color="#0D0B09"/></linearGradient><radialGradient id="gl" cx="0.5" cy="0.42" r="0.62"><stop offset="0" stop-color="#C8722A" stop-opacity="0.22"/><stop offset="1" stop-color="#C8722A" stop-opacity="0"/></radialGradient></defs><rect width="480" height="220" fill="url(#bg)"/><rect width="480" height="220" fill="url(#gl)"/><g transform="translate(432 196) scale(1.15)" fill="#C8722A" opacity="0.06"><ellipse cx="0" cy="10" rx="20" ry="16"/><circle cx="-18" cy="-12" r="7"/><circle cx="-6" cy="-19" r="7"/><circle cx="6" cy="-19" r="7"/><circle cx="18" cy="-12" r="7"/></g><rect x="192" y="66" width="96" height="120" rx="8" fill="none" stroke="#F2EDE6" stroke-width="7"/><rect x="222" y="56" width="36" height="20" rx="5" fill="#C8722A"/><g stroke="#C8722A" stroke-width="6" stroke-linecap="round" stroke-linejoin="round" fill="none"><path d="M210 100 l8 8 14 -16"/><path d="M210 130 l8 8 14 -16"/><path d="M210 160 l8 8 14 -16"/></g><g stroke="#F2EDE6" stroke-width="5" stroke-linecap="round" opacity="0.7"><line x1="244" y1="104" x2="272" y2="104"/><line x1="244" y1="134" x2="272" y2="134"/><line x1="244" y1="164" x2="272" y2="164"/></g></svg>