<svg xmlns="http://www.w3.org/2000/svg" viewBox="0 0 480 220" preserveAspectRatio="xMidYMid slice" role="img" aria-label="Esperanza de vida del Rottweiler"><title>Esperanza de vida del Rottweiler</title><defs><linearGradient id="bg" x1="0" y1="0" x2="1" y2="1"><stop offset="0" stop-color="#1E1008"/><stop offset="1" stop-color="#0D0B09"/></linearGradient><radialGradient id="gl" cx="0.5" cy="0.42" r="0.62"><stop offset="0" stop-color="#C8722A" stop-opacity="0.22"/><stop offset="1" stop-color="#C8722A" stop-opacity="0"/></radialGradient></defs><rect width="480" height="220" fill="url(#bg)"/><rect width="480" height="220" fill="url(#gl)"/><g transform="translate(432 196) scale(1.15)" fill="#C8722A" opacity="0.06"><ellipse cx="0" cy="10" rx="20" ry="16"/><circle cx="-18" cy="-12" r="7"/><circle cx="-6" cy="-19" r="7"/><circle cx="6" cy="-19" r="7"/><circle cx="18" cy="-12" r="7"/></g><g fill="none" stroke="#C8722A" stroke-width="8" stroke-linecap="round" stroke-linejoin="round"><line x1="204" y1="62" x2="276" y2="62"/><line x1="204" y1="178" x2="276" y2="178"/><path d="M210 62 Q210 108 240 120 Q270 132 270 178"/><path d="M270 62 Q270 108 240 120 Q210 132 210 178"/></g><g transform="translate(240 92) scale(0.7)" opacity="1.0"><path d="M0 18 C-26 -2 -20 -30 0 -14 C20 -30 26 -2 0 18 Z" fill="#F2EDE6" stroke="#F2EDE6" stroke-width="0" stroke-linejoin="round"/></g><circle cx="240" cy="150" r="5" fill="#F2EDE6"/><circle cx="230" cy="164" r="4" fill="#F2EDE6"/><circle cx="250" cy="164" r="4" fill="#F2EDE6"/></svg>